<svg width="18" height="18" viewBox="0 0 18 18" fill="none" xmlns="http://www.w3.org/2000/svg">
<path fill-rule="evenodd" clip-rule="evenodd" d="M11.6088 1.94177C13.0709 0.479697 15.4414 0.479698 16.9034 1.94177C18.3655 3.40384 18.3655 5.77432 16.9034 7.23639L16.4801 7.65979C16.1872 7.95268 15.7123 7.95268 15.4194 7.65979C15.1265 7.3669 15.1265 6.89202 15.4194 6.59913L15.8428 6.17573C16.7191 5.29945 16.7191 3.87871 15.8428 3.00243C14.9665 2.12614 13.5458 2.12614 12.6695 3.00243L5.47174 10.2002C5.06313 10.6088 5.06313 11.2713 5.47174 11.6799C5.88035 12.0885 6.54285 12.0885 6.95146 11.6799L12.4556 6.17573C12.7485 5.88284 13.2234 5.88284 13.5163 6.17573C13.8092 6.46863 13.8092 6.9435 13.5163 7.23639L8.01212 12.7405C7.01772 13.7349 5.40548 13.7349 4.41108 12.7405C3.41668 11.7461 3.41668 10.1339 4.41108 9.13951L11.6088 1.94177ZM8.85891 2.36516C9.15181 2.65806 9.15181 3.13293 8.85891 3.42582L2.50797 9.77677C1.16401 11.1207 1.16401 13.2997 2.50797 14.6437C3.85192 15.9876 6.0309 15.9876 7.37486 14.6437L13.7258 8.29271C14.0187 7.99982 14.4936 7.99982 14.7865 8.29271C15.0794 8.58561 15.0794 9.06048 14.7865 9.35338L8.43552 15.7043C6.50577 17.6341 3.37705 17.6341 1.44731 15.7043C-0.482435 13.7746 -0.482436 10.6459 1.44731 8.71611L7.79825 2.36516C8.09115 2.07227 8.56602 2.07227 8.85891 2.36516Z" fill="#222222"/>
</svg>
