<svg width="18" height="18" viewBox="0 0 18 18" fill="none" xmlns="http://www.w3.org/2000/svg">
<path fill-rule="evenodd" clip-rule="evenodd" d="M8.24964 17.426C8.34247 17.5004 8.41604 17.558 8.46713 17.5975L8.99901 17.9965L9.53088 17.5975C9.58197 17.558 9.65554 17.5004 9.74837 17.426C9.93398 17.2773 10.197 17.0608 10.5116 16.7861C11.1399 16.2375 11.9794 15.4522 12.8213 14.506C14.4702 12.6529 16.273 10.024 16.273 7.274C16.273 3.25668 13.0163 0 8.99901 0C4.98169 0 1.72501 3.25668 1.72501 7.274C1.72501 10.024 3.52783 12.6529 5.1767 14.506C6.01857 15.4522 6.85811 16.2375 7.48636 16.7861C7.80102 17.0608 8.06404 17.2773 8.24964 17.426ZM8.99901 1.5C5.81011 1.5 3.22501 4.08511 3.22501 7.274C3.22501 9.43188 4.68418 11.696 6.29731 13.5089C7.08644 14.3958 7.8779 15.1367 8.4729 15.6561C8.67392 15.8317 8.85189 15.9814 8.999 16.1023C9.14612 15.9814 9.32409 15.8317 9.52511 15.6561C10.1201 15.1367 10.9116 14.3958 11.7007 13.5089C13.3138 11.696 14.773 9.43188 14.773 7.274C14.773 4.08511 12.1879 1.5 8.99901 1.5Z" fill="#222222"/>
<path fill-rule="evenodd" clip-rule="evenodd" d="M8.999 4.76221C7.61166 4.76221 6.487 5.88687 6.487 7.27421C6.487 8.66155 7.61166 9.78621 8.999 9.78621C10.3863 9.78621 11.511 8.66155 11.511 7.27421C11.511 5.88687 10.3863 4.76221 8.999 4.76221ZM4.987 7.27421C4.987 5.05844 6.78323 3.26221 8.999 3.26221C11.2148 3.26221 13.011 5.05844 13.011 7.27421C13.011 9.48997 11.2148 11.2862 8.999 11.2862C6.78323 11.2862 4.987 9.48997 4.987 7.27421Z" fill="#222222"/>
</svg>
