<svg width="15" height="15" viewBox="0 0 15 15" fill="none" xmlns="http://www.w3.org/2000/svg">
<path fill-rule="evenodd" clip-rule="evenodd" d="M6.80118 14.4664C6.87761 14.5276 6.93829 14.5751 6.98059 14.6078L7.49899 14.9965L8.01739 14.6078C8.05969 14.5751 8.12036 14.5276 8.19679 14.4664C8.34958 14.3439 8.56572 14.166 8.82413 13.9404C9.33989 13.4901 10.0294 12.8451 10.7213 12.0675C12.0702 10.5516 13.573 8.37265 13.573 6.074C13.573 2.71942 10.8536 0 7.49899 0C4.14441 0 1.42499 2.71942 1.42499 6.074C1.42499 8.37265 2.92781 10.5516 4.27668 12.0675C4.96855 12.8451 5.65809 13.4901 6.17384 13.9404C6.43225 14.166 6.64839 14.3439 6.80118 14.4664ZM7.49899 1.5C4.97284 1.5 2.92499 3.54785 2.92499 6.074C2.92499 7.78051 4.08416 9.59461 5.39729 11.0704C6.03642 11.7887 6.67789 12.3892 7.16038 12.8104C7.28521 12.9194 7.39903 13.0161 7.49899 13.0994C7.59895 13.0161 7.71277 12.9194 7.83759 12.8104C8.32009 12.3892 8.96155 11.7887 9.60068 11.0704C10.9138 9.59461 12.073 7.78051 12.073 6.074C12.073 3.54785 10.0251 1.5 7.49899 1.5Z" fill="#222222"/>
<path fill-rule="evenodd" clip-rule="evenodd" d="M7.49898 4.16211C6.44301 4.16211 5.58698 5.01814 5.58698 6.07411C5.58698 7.13008 6.44301 7.98611 7.49898 7.98611C8.55494 7.98611 9.41097 7.13008 9.41097 6.07411C9.41097 5.01814 8.55494 4.16211 7.49898 4.16211ZM4.08698 6.07411C4.08698 4.18971 5.61458 2.66211 7.49898 2.66211C9.38337 2.66211 10.911 4.18971 10.911 6.07411C10.911 7.9585 9.38337 9.48611 7.49898 9.48611C5.61458 9.48611 4.08698 7.9585 4.08698 6.07411Z" fill="#222222"/>
</svg>
