<svg width="18" height="18" viewBox="0 0 18 18" fill="none" xmlns="http://www.w3.org/2000/svg">
<path d="M9.92969 2.38281C10.1849 2.63802 10.3125 2.94792 10.3125 3.3125C10.3125 3.67708 10.1849 3.98698 9.92969 4.24219C9.67448 4.4974 9.36458 4.625 9 4.625C8.63542 4.625 8.32552 4.4974 8.07031 4.24219C7.8151 3.98698 7.6875 3.67708 7.6875 3.3125C7.6875 2.94792 7.8151 2.63802 8.07031 2.38281C8.32552 2.1276 8.63542 2 9 2C9.36458 2 9.67448 2.1276 9.92969 2.38281ZM8.07031 13.7578C8.32552 13.5026 8.63542 13.375 9 13.375C9.36458 13.375 9.67448 13.5026 9.92969 13.7578C10.1849 14.013 10.3125 14.3229 10.3125 14.6875C10.3125 15.0521 10.1849 15.362 9.92969 15.6172C9.67448 15.8724 9.36458 16 9 16C8.63542 16 8.32552 15.8724 8.07031 15.6172C7.8151 15.362 7.6875 15.0521 7.6875 14.6875C7.6875 14.3229 7.8151 14.013 8.07031 13.7578ZM13.7578 8.07031C14.013 7.8151 14.3229 7.6875 14.6875 7.6875C15.0521 7.6875 15.362 7.8151 15.6172 8.07031C15.8724 8.32552 16 8.63542 16 9C16 9.36458 15.8724 9.67448 15.6172 9.92969C15.362 10.1849 15.0521 10.3125 14.6875 10.3125C14.3229 10.3125 14.013 10.1849 13.7578 9.92969C13.5026 9.67448 13.375 9.36458 13.375 9C13.375 8.63542 13.5026 8.32552 13.7578 8.07031ZM4.24219 8.07031C4.4974 8.32552 4.625 8.63542 4.625 9C4.625 9.36458 4.4974 9.67448 4.24219 9.92969C3.98698 10.1849 3.67708 10.3125 3.3125 10.3125C2.94792 10.3125 2.63802 10.1849 2.38281 9.92969C2.1276 9.67448 2 9.36458 2 9C2 8.63542 2.1276 8.32552 2.38281 8.07031C2.63802 7.8151 2.94792 7.6875 3.3125 7.6875C3.67708 7.6875 3.98698 7.8151 4.24219 8.07031ZM4.05078 12.0898C4.30599 11.8346 4.61589 11.707 4.98047 11.707C5.34505 11.707 5.65495 11.8346 5.91016 12.0898C6.16536 12.3451 6.29297 12.6549 6.29297 13.0195C6.29297 13.3841 6.16536 13.694 5.91016 13.9492C5.65495 14.2044 5.34505 14.332 4.98047 14.332C4.61589 14.332 4.30599 14.2044 4.05078 13.9492C3.79557 13.694 3.66797 13.3841 3.66797 13.0195C3.66797 12.6549 3.79557 12.3451 4.05078 12.0898ZM12.0898 12.0898C12.3451 11.8346 12.6549 11.707 13.0195 11.707C13.3841 11.707 13.694 11.8346 13.9492 12.0898C14.2044 12.3451 14.332 12.6549 14.332 13.0195C14.332 13.3841 14.2044 13.694 13.9492 13.9492C13.694 14.2044 13.3841 14.332 13.0195 14.332C12.6549 14.332 12.3451 14.2044 12.0898 13.9492C11.8346 13.694 11.707 13.3841 11.707 13.0195C11.707 12.6549 11.8346 12.3451 12.0898 12.0898ZM4.05078 4.05078C4.30599 3.79557 4.61589 3.66797 4.98047 3.66797C5.34505 3.66797 5.65495 3.79557 5.91016 4.05078C6.16536 4.30599 6.29297 4.61589 6.29297 4.98047C6.29297 5.34505 6.16536 5.65495 5.91016 5.91016C5.65495 6.16536 5.34505 6.29297 4.98047 6.29297C4.61589 6.29297 4.30599 6.16536 4.05078 5.91016C3.79557 5.65495 3.66797 5.34505 3.66797 4.98047C3.66797 4.61589 3.79557 4.30599 4.05078 4.05078Z" fill="#222222"/>
</svg>
